<?xml version="1.0" standalone="no"?>
<!DOCTYPE svg PUBLIC "-//W3C//DTD SVG 20010904//EN"
 "http://www.w3.org/TR/2001/REC-SVG-20010904/DTD/svg10.dtd">
<svg version="1.0" xmlns="http://www.w3.org/2000/svg"
 width="150.000000pt" height="113.000000pt" viewBox="0 0 150.000000 113.000000"
 preserveAspectRatio="xMidYMid meet">
<metadata>
Created by potrace 1.10, written by Peter Selinger 2001-2011
</metadata>
<g transform="translate(0.000000,113.000000) scale(0.100000,-0.100000)"
fill="#b70948" stroke="none">
<path d="M750 975 c0 -71 24 -77 34 -9 6 50 2 64 -20 64 -10 0 -14 -14 -14
-55z"/>
<path d="M958 1023 c0 -5 -2 -12 -3 -18 -2 -5 -3 -21 -4 -35 -1 -16 -9 -29
-23 -35 -29 -13 -31 -49 -3 -53 32 -4 46 12 52 57 5 33 8 39 19 30 11 -9 14
-8 14 3 0 29 -47 75 -52 51z"/>
<path d="M691 1011 c-12 -8 -11 -19 3 -76 9 -37 15 -69 13 -72 -2 -2 -18 4
-34 13 -29 17 -63 14 -63 -5 0 -6 14 -17 30 -26 17 -9 30 -20 30 -24 0 -5 12
-23 26 -40 14 -17 23 -31 19 -31 -4 0 3 -8 14 -18 21 -16 21 -21 11 -67 -6
-28 -17 -68 -25 -90 -12 -39 -12 -41 13 -53 14 -7 36 -12 48 -12 18 0 22 7 28
46 3 26 6 78 6 116 0 55 4 75 20 95 12 15 20 41 20 63 0 21 7 54 16 75 15 36
13 65 -4 65 -14 0 -42 -75 -42 -114 0 -38 -35 -120 -48 -112 -4 2 -22 25 -40
50 -21 29 -28 47 -21 52 21 12 37 65 28 93 -5 14 -11 38 -14 54 -6 29 -12 32
-34 18z"/>
<path d="M800 971 c0 -11 -2 -26 -5 -33 -4 -9 2 -14 15 -15 11 -1 20 4 20 10
0 7 3 22 6 35 5 18 2 22 -15 22 -14 0 -21 -6 -21 -19z"/>
<path d="M513 909 c-18 -12 -33 -28 -33 -36 0 -8 -7 -21 -15 -30 -18 -18 -11
-33 15 -33 14 0 20 8 22 32 4 46 28 49 28 4 0 -39 22 -58 43 -37 9 10 8 15 -5
25 -10 7 -18 29 -20 54 l-3 41 -32 -20z"/>
<path d="M937 814 c-4 -4 -8 -23 -8 -43 -1 -36 -1 -36 -8 -6 -8 38 -24 38 -32
-1 -6 -24 -7 -25 -8 -6 -1 14 -6 22 -13 19 -7 -2 -12 -15 -10 -28 2 -13 3 -44
3 -69 0 -25 7 -55 14 -67 9 -13 12 -33 9 -51 -6 -29 -4 -30 35 -34 41 -3 41
-3 41 30 0 32 36 78 86 109 16 10 17 14 5 22 -10 6 -24 5 -43 -5 -33 -17 -34
-14 -8 52 19 51 18 64 -5 64 -17 0 -38 -86 -30 -121 4 -19 0 -38 -16 -62 l-23
-35 -18 40 c-32 71 -21 119 25 114 25 -3 27 0 27 30 0 19 0 37 1 41 1 10 -16
15 -24 7z"/>
<path d="M637 746 c-3 -8 -3 -24 0 -37 4 -15 3 -20 -5 -15 -7 4 -12 18 -12 32
0 15 -6 24 -16 24 -17 0 -17 -12 2 -85 l7 -27 -26 17 c-44 28 -51 7 -12 -36
19 -21 35 -43 35 -48 0 -5 9 -7 20 -4 11 3 26 0 33 -6 17 -14 30 11 46 87 15
71 14 77 -4 62 -13 -11 -14 -10 -9 4 4 10 1 16 -9 16 -9 0 -18 -10 -20 -22 -3
-14 -5 -9 -6 15 -1 37 -14 49 -24 23z m39 -92 c-3 -14 -10 -32 -17 -40 -11
-13 -14 -13 -27 -1 -12 13 -12 18 3 41 23 35 47 35 41 0z"/>
<path d="M1151 722 c-62 -33 -89 -119 -57 -181 8 -15 31 -42 51 -60 41 -35 95
-42 145 -16 30 16 70 61 70 79 -1 6 -7 0 -15 -14 -19 -33 -19 -21 0 21 8 19
14 28 15 20 0 -8 2 -12 5 -10 9 9 -24 111 -42 131 -45 49 -114 61 -172 30z
m133 -33 c28 -22 35 -45 11 -35 -8 3 -23 -4 -34 -15 -16 -17 -19 -18 -24 -5
-4 9 -12 16 -19 15 -10 0 -10 -2 0 -6 18 -7 15 -72 -3 -80 -9 -3 -19 -2 -23 2
-4 4 -1 10 6 12 6 3 12 16 12 29 0 19 -8 29 -35 40 -41 17 -43 27 -13 48 32
23 90 20 122 -5z m-110 -65 c9 -8 16 -18 16 -21 0 -14 -35 -43 -52 -43 -14 0
-18 8 -18 40 0 33 3 40 19 40 11 0 27 -7 35 -16z m141 6 c3 -6 -4 -10 -17 -11
l-23 0 23 -11 c26 -13 29 -36 6 -45 -15 -6 -15 -7 1 -20 10 -7 17 -14 14 -16
-66 -52 -97 -57 -146 -27 -43 26 -42 38 5 45 48 8 82 22 82 34 0 5 10 7 23 5
l22 -5 -22 10 c-22 10 -30 31 -16 44 10 10 41 8 48 -3z m15 -124 c0 -8 -67
-46 -80 -46 -7 0 7 11 31 24 50 28 49 27 49 22z"/>
<path d="M1137 605 c-8 -18 11 -31 25 -17 11 11 3 32 -12 32 -4 0 -10 -7 -13
-15z"/>
<path d="M220 701 c-105 -38 -105 -39 -105 -282 0 -205 3 -221 46 -232 38 -10
52 20 46 99 -5 61 -3 73 11 79 9 3 18 1 20 -5 16 -47 72 -53 104 -10 31 42 43
23 23 -38 -21 -62 -9 -92 35 -92 54 0 79 73 41 122 -19 24 -19 24 0 36 26 17
29 15 29 -13 0 -40 26 -82 55 -87 19 -4 31 2 50 24 14 16 25 37 25 46 0 13 4
11 20 -6 26 -28 34 -28 58 3 23 30 32 31 32 7 0 -25 28 -62 48 -62 13 0 26 29
55 118 21 64 38 124 37 132 0 26 -17 -4 -34 -61 -8 -30 -23 -73 -32 -95 l-16
-39 -17 68 c-27 104 -76 137 -60 40 5 -37 3 -54 -9 -73 l-16 -25 -7 54 c-7 50
-23 76 -41 65 -4 -3 -8 -16 -8 -30 0 -13 -14 -53 -31 -87 -30 -59 -32 -61 -41
-37 -5 14 -12 63 -15 109 l-6 83 41 -7 c26 -4 42 -3 42 3 0 12 -24 22 -56 22
-23 0 -24 3 -24 65 0 51 -3 65 -15 65 -15 0 -19 -13 -29 -84 -6 -49 -11 -53
-34 -33 -10 10 -26 17 -36 17 -22 0 -48 -61 -50 -118 -2 -32 -9 -50 -29 -70
-23 -23 -29 -25 -37 -12 -14 22 -13 28 15 52 28 25 33 66 9 75 -25 9 -48 -10
-59 -51 -11 -39 -28 -56 -57 -56 -22 0 -25 17 -33 148 l-6 103 38 14 c71 28
108 50 111 68 4 22 2 21 -88 -12z m209 -221 c-11 -31 -29 -41 -29 -16 0 25 12
46 26 46 10 0 11 -6 3 -30z m41 -17 c0 -43 -3 -50 -30 -65 -26 -15 -30 -15
-30 -2 0 9 8 28 19 42 10 15 22 37 25 50 11 34 16 26 16 -25z m-278 -216 c-5
-20 -6 -20 -13 -1 -10 25 -11 79 -1 88 9 10 21 -61 14 -87z m221 71 c7 -25
-23 -82 -31 -60 -6 19 7 82 17 82 5 0 11 -10 14 -22z"/>
<path d="M1029 578 c-1 -13 -1 -49 0 -82 1 -45 -4 -67 -21 -95 l-23 -36 -3 48
c-3 46 -5 49 -44 67 -48 21 -61 18 -77 -16 -18 -40 -14 -92 8 -104 27 -14 29
-13 44 17 l14 27 8 -25 c15 -47 57 -53 79 -11 14 25 15 26 16 5 0 -26 40 -56
66 -51 21 4 50 50 59 93 5 27 4 28 -7 11 -44 -63 -51 -69 -60 -52 -5 9 -12 63
-16 119 -6 86 -10 102 -24 105 -13 2 -18 -3 -19 -20z m-107 -144 c-11 -23 -18
-31 -20 -21 -4 19 15 57 28 57 5 0 2 -16 -8 -36z"/>
<path d="M290 550 c0 -32 14 -40 24 -14 10 27 7 44 -9 44 -10 0 -15 -10 -15
-30z"/>
<path d="M626 534 c-10 -25 -7 -34 9 -34 8 0 15 2 15 4 0 2 3 11 6 19 3 8 -1
17 -10 20 -8 3 -17 -1 -20 -9z"/>
<path d="M1231 154 c-25 -32 -13 -64 24 -64 21 0 25 5 25 30 0 17 -5 30 -11
30 -6 0 -9 7 -5 15 9 24 -11 17 -33 -11z m35 -25 c10 -17 -13 -36 -27 -22 -12
12 -4 33 11 33 5 0 12 -5 16 -11z"/>
<path d="M122 148 c-10 -10 -8 -16 10 -31 l23 -18 -22 6 c-14 4 -23 2 -23 -5
0 -15 52 -8 58 8 2 6 -7 16 -20 21 l-23 10 23 0 c13 1 20 5 17 11 -8 14 -28
13 -43 -2z"/>
<path d="M190 145 c-6 -8 -9 -23 -5 -35 10 -31 59 -24 63 9 6 37 -34 55 -58
26z m44 -13 c8 -13 -11 -35 -23 -28 -16 10 -14 36 3 36 8 0 17 -4 20 -8z"/>
<path d="M270 125 c0 -19 5 -35 11 -35 6 0 9 7 5 15 -3 8 -1 15 3 15 5 0 11
-7 15 -15 10 -27 26 -15 26 20 0 35 -20 51 -20 18 -1 -17 -1 -17 -14 0 -20 25
-26 21 -26 -18z"/>
<path d="M350 126 c0 -20 5 -36 10 -36 6 0 10 13 10 29 0 17 -4 33 -10 36 -6
4 -10 -8 -10 -29z"/>
<path d="M389 158 c-1 -2 -2 -18 -4 -35 -2 -30 0 -33 25 -33 33 0 49 32 30 55
-10 13 -47 21 -51 13z m39 -35 c-5 -25 -28 -28 -28 -4 0 12 6 21 16 21 9 0 14
-7 12 -17z"/>
<path d="M470 145 c-20 -25 -8 -50 25 -50 24 0 31 5 33 24 6 37 -34 55 -58 26z
m38 -22 c-4 -22 -22 -20 -26 1 -2 10 3 16 13 16 10 0 15 -7 13 -17z"/>
<path d="M650 125 c0 -19 5 -35 10 -35 6 0 10 16 10 35 0 19 -4 35 -10 35 -5
0 -10 -16 -10 -35z"/>
<path d="M692 128 c-2 -34 1 -38 21 -37 15 1 17 3 5 6 -10 2 -18 17 -21 36 -4
31 -4 31 -5 -5z"/>
<path d="M742 128 c2 -27 8 -34 30 -36 22 -3 29 2 34 22 3 14 2 31 -2 38 -6 9
-10 4 -14 -16 -6 -36 -24 -36 -28 -1 -5 37 -24 30 -20 -7z"/>
<path d="M829 158 c0 -2 -2 -18 -3 -35 -4 -35 9 -46 17 -15 4 16 5 16 6 0 1
-17 21 -26 21 -10 0 24 -36 77 -41 60z"/>
<path d="M875 150 c-8 -12 5 -60 16 -60 5 0 9 16 9 35 0 33 -12 46 -25 25z"/>
<path d="M923 125 c0 -22 2 -30 4 -17 2 12 2 30 0 40 -3 9 -5 -1 -4 -23z"/>
<path d="M950 125 c0 -35 20 -51 20 -17 1 16 1 16 14 0 20 -27 26 -22 25 20
-1 32 -2 34 -8 12 l-7 -25 -12 23 c-18 32 -32 27 -32 -13z"/>
<path d="M1041 129 c-6 -18 -11 -33 -11 -33 0 -1 15 -2 34 -2 33 0 33 0 21 30
-18 41 -31 43 -44 5z"/>
<path d="M1111 146 c-19 -22 -4 -56 24 -56 13 0 27 5 31 11 4 7 -2 9 -17 7
-17 -2 -25 3 -27 16 -3 15 0 18 18 13 14 -3 20 -1 17 6 -6 18 -32 20 -46 3z"/>
<path d="M1180 125 c0 -19 5 -35 10 -35 6 0 10 16 10 35 0 19 -4 35 -10 35 -5
0 -10 -16 -10 -35z"/>
<path d="M1300 125 c0 -35 20 -51 20 -17 1 16 1 16 14 0 20 -26 26 -22 26 18
0 21 -4 33 -10 29 -6 -4 -8 -11 -5 -16 4 -5 2 -9 -3 -9 -6 0 -12 7 -16 15 -10
27 -26 15 -26 -20z"/>
</g>
</svg>
