<svg xmlns="http://www.w3.org/2000/svg" version="1.0" width="300" height="198" preserveAspectRatio="xMidYMid meet"><rect id="backgroundrect" width="100%" height="100%" x="0" y="0" fill="none" stroke="none"/>
<metadata>
Created by potrace 1.10, written by Peter Selinger 2001-2011
</metadata>

<g class="currentLayer" style=""><title>Layer 1</title><g transform="translate(0,198) scale(0.10000000149011612,-0.10000000149011612) " fill="#b70948" stroke="none" id="svg_1">
<path d="M2006 1848 c-8 -104 -9 -108 -38 -108 -31 0 -78 -32 -85 -59 -13 -52 43 -82 112 -59 37 12 41 17 51 63 7 28 13 75 13 104 l1 55 35 -34 35 -34 0 27 c0 32 -15 61 -54 105 -51 55 -62 45 -70 -60z m8 -150 c-11 -38 -26 -49 -58 -46 -42 4 -40 29 4 50 48 25 63 23 54 -4z" id="svg_2"/>
<path d="M1547 1923 c-4 -3 -7 -31 -7 -62 0 -75 -11 -162 -20 -156 -4 2 -13 43 -20 90 -16 106 -25 120 -69 110 -18 -4 -35 -12 -37 -19 -3 -7 9 -81 26 -165 16 -84 30 -157 30 -162 0 -6 -29 6 -63 26 -76 42 -128 46 -151 13 -15 -21 -14 -23 43 -59 57 -36 92 -75 122 -133 7 -16 26 -38 41 -49 20 -15 26 -26 22 -41 -4 -17 2 -24 25 -33 50 -18 57 -50 32 -130 -12 -37 -25 -97 -28 -133 -4 -36 -17 -92 -30 -124 -27 -70 -28 -76 -9 -76 7 0 30 -11 50 -25 29 -20 50 -25 95 -25 l58 0 6 88 c4 48 10 169 13 270 l7 182 33 39 c45 52 54 79 54 161 0 54 7 87 30 145 38 95 39 132 6 141 -35 9 -44 0 -62 -64 -9 -31 -19 -64 -22 -72 -5 -13 -3 -13 11 -1 9 7 17 19 17 25 0 6 10 22 21 36 17 21 20 21 14 5 -33 -101 -44 -151 -49 -219 -5 -72 -10 -85 -46 -139 -30 -45 -40 -70 -40 -101 -1 -43 -5 -136 -16 -323 -7 -131 -17 -149 -76 -133 -19 6 -43 18 -52 29 -15 17 -15 23 -2 62 8 24 19 82 26 129 6 46 16 93 22 103 5 11 11 43 11 71 2 45 -2 58 -28 88 -60 72 -91 112 -123 162 -18 28 -52 68 -75 89 -49 44 -33 48 40 10 85 -45 110 -12 86 112 -22 119 -27 185 -14 185 6 0 11 -15 12 -32 0 -42 40 -123 59 -123 8 0 20 11 26 24 7 13 21 29 31 34 10 6 15 7 11 3 -3 -4 -1 -22 5 -39 l11 -32 7 27 c4 15 10 66 14 114 6 68 5 88 -6 95 -17 10 -63 12 -72 2z m45 -94 c-5 -48 -10 -46 -16 4 -4 25 -1 37 7 37 9 0 11 -13 9 -41z" id="svg_3"/>
<path d="M1673 1852 c-7 -4 -19 -41 -28 -81 -8 -40 -18 -77 -21 -82 -3 -5 -3 -9 0 -9 10 0 56 79 56 95 0 8 5 15 11 15 5 0 7 5 3 12 -5 7 -3 8 6 3 12 -7 8 -82 -6 -120 -4 -8 -2 -15 4 -15 5 0 19 35 31 77 16 61 18 80 8 89 -17 17 -50 25 -64 16z" id="svg_4"/>
<path d="M1033 1682 c-22 -15 -55 -35 -72 -44 -27 -15 -31 -22 -31 -60 0 -35 -4 -45 -22 -53 -29 -13 -34 -38 -13 -59 20 -20 59 -21 75 -2 6 9 10 36 9 62 -3 44 -1 49 26 66 17 10 33 18 38 18 4 0 7 -35 7 -79 0 -87 10 -105 56 -99 54 6 58 68 5 76 -12 2 -21 9 -20 15 5 38 -2 187 -8 186 -5 0 -27 -13 -50 -27z" id="svg_5"/>
<path d="M1962 1448 c-15 -15 -17 -182 -2 -173 6 3 10 16 10 28 0 22 0 22 19 -2 l18 -24 6 33 c13 63 8 137 -9 144 -22 8 -28 8 -42 -6z" id="svg_6"/>
<path d="M2066 1398 c-24 -54 -44 -128 -35 -128 4 0 15 10 23 22 21 29 20 12 -1 -68 -22 -83 -14 -100 48 -96 l43 3 -30 -29 c-109 -109 -124 -133 -124 -195 0 -55 -13 -67 -65 -58 l-40 6 -6 65 c-3 36 -15 86 -28 112 -18 39 -22 63 -20 138 1 49 5 90 10 90 12 0 11 27 -2 73 -8 29 -15 37 -34 37 -35 0 -38 -13 -21 -81 9 -33 16 -102 16 -152 0 -82 3 -97 25 -129 27 -39 31 -77 15 -143 -5 -22 -8 -40 -7 -41 1 -1 44 -5 95 -9 l92 -7 0 76 0 76 75 75 c41 41 80 75 87 75 7 0 24 9 38 19 20 16 22 21 11 35 -19 22 -74 20 -122 -5 -23 -11 -43 -18 -46 -16 -2 3 15 62 39 132 42 123 42 127 23 141 -29 22 -44 17 -59 -18z" id="svg_7"/>
<path d="M1863 1403 c-16 -6 -16 -18 -2 -84 12 -55 32 -51 23 6 -4 25 -3 24 10 -10 9 -22 16 -41 16 -42 0 -2 5 -3 11 -3 12 0 6 111 -7 131 -6 10 -31 11 -51 2z" id="svg_8"/>
<path d="M1290 1304 c-6 -14 -10 -51 -10 -81 0 -70 -9 -63 -24 19 -11 64 -25 78 -56 59 -12 -9 -12 -19 -1 -83 21 -113 24 -148 13 -148 -6 0 -14 5 -18 11 -3 6 -22 18 -41 25 -61 26 -100 -6 -48 -40 34 -22 131 -147 127 -163 -4 -16 3 -16 29 -2 27 14 75 2 99 -24 l20 -21 0 27 c0 15 6 30 14 33 21 8 35 49 45 130 5 39 16 85 25 102 23 45 21 82 -4 82 -25 0 -41 -36 -46 -100 -6 -84 -16 -135 -31 -168 -15 -32 -18 -33 -57 -27 -67 10 -74 14 -106 57 -30 41 -39 65 -21 53 19 -11 51 38 51 77 0 31 4 38 19 38 11 0 21 6 24 13 3 9 7 9 19 -1 13 -10 16 -8 22 19 12 61 7 126 -10 133 -23 9 -24 8 -34 -20z" id="svg_9"/>
<path d="M2530 1281 c-95 -20 -195 -109 -225 -200 -24 -74 -18 -180 15 -245 52 -102 158 -166 275 -166 77 0 118 12 175 51 241 165 145 538 -145 563 -33 2 -76 1 -95 -3z m190 -48 c59 -27 107 -76 136 -138 19 -39 24 -67 24 -131 0 -77 -2 -84 -39 -141 -42 -66 -118 -123 -162 -123 -15 0 -38 -4 -52 -9 -14 -6 -40 -5 -68 1 -183 42 -276 199 -223 378 21 71 101 152 170 173 64 20 158 15 214 -10z" id="svg_10"/>
<path d="M2365 1064 c-29 -22 -35 -140 -8 -173 17 -21 28 -24 73 -22 30 1 59 6 67 12 9 8 17 8 27 0 8 -7 29 -13 47 -13 45 -1 79 39 79 93 0 45 12 50 29 13 9 -20 9 -30 0 -40 -9 -11 -8 -18 2 -31 22 -28 32 -33 72 -33 50 0 71 12 87 50 11 25 10 34 -4 56 -13 19 -15 29 -6 39 9 11 6 20 -14 40 -36 36 -87 34 -123 -5 -14 -16 -30 -30 -35 -30 -15 0 -8 19 14 40 17 16 19 20 6 20 -9 0 -18 -6 -21 -12 -3 -10 -9 -10 -27 0 -35 21 -70 -7 -70 -56 l0 -37 -23 40 c-12 22 -34 45 -47 52 -34 17 -101 16 -125 -3z m140 -40 c20 -27 19 -77 -3 -104 -14 -18 -32 -24 -75 -28 l-57 -4 0 79 c0 44 2 82 5 84 2 3 29 2 60 -1 38 -4 60 -12 70 -26z m118 -37 c-2 -80 -14 -99 -57 -95 -42 4 -50 38 -9 35 28 -2 28 -2 31 66 2 58 6 68 20 65 14 -3 16 -15 15 -71z m172 61 c38 -17 25 -34 -23 -30 -54 5 -55 -14 -2 -28 85 -23 70 -100 -19 -100 -36 0 -70 25 -55 40 8 8 18 8 37 -1 26 -12 57 -7 57 9 0 5 -18 14 -40 21 -22 6 -45 21 -51 33 -10 19 -8 25 15 45 31 26 44 28 81 11z" id="svg_11"/>
<path d="M2410 970 c0 -43 3 -50 20 -50 21 0 60 33 60 51 0 27 -22 49 -50 49 -29 0 -30 -1 -30 -50z" id="svg_12"/>
<path d="M1364 1243 c-3 -16 -10 -43 -14 -60 -10 -38 -8 -39 15 -16 14 13 18 14 25 3 11 -17 35 62 27 84 -11 27 -46 19 -53 -11z" id="svg_13"/>
<path d="M515 1253 c-40 -9 -198 -65 -273 -96 -101 -42 -107 -55 -127 -262 -30 -307 -17 -727 25 -804 14 -27 86 -53 122 -45 48 10 62 57 55 184 -4 58 -9 124 -13 147 -6 40 -5 42 29 56 19 8 38 20 41 26 13 21 23 11 30 -27 7 -47 41 -81 90 -89 44 -7 82 17 141 88 22 27 42 49 45 49 3 -1 13 -12 24 -26 18 -26 18 -27 -2 -63 -23 -42 -52 -146 -52 -187 1 -36 18 -60 54 -74 97 -37 186 36 186 152 0 41 -27 96 -67 136 -22 22 -15 36 32 65 25 15 47 27 49 27 2 0 6 -32 9 -71 7 -83 35 -148 74 -170 34 -20 87 -31 108 -23 18 7 66 74 107 149 15 28 28 42 28 33 0 -26 42 -67 75 -74 40 -7 77 22 101 81 11 25 21 45 24 45 4 0 11 -26 18 -57 14 -69 43 -120 75 -132 67 -25 62 -28 92 61 15 46 46 135 70 198 48 131 91 287 82 296 -16 16 -36 -9 -47 -58 -28 -120 -112 -352 -136 -378 -9 -8 -24 25 -24 53 0 32 -41 183 -66 242 -19 46 -29 55 -66 55 -33 0 -34 -8 -17 -141 11 -86 11 -88 -16 -138 -16 -28 -34 -51 -40 -51 -8 0 -14 30 -18 90 -6 99 -29 163 -61 168 -27 6 -34 -6 -46 -83 -8 -50 -26 -97 -61 -165 -54 -103 -84 -148 -93 -139 -17 17 -47 205 -53 334 l-6 146 24 -5 c132 -29 169 -30 169 -7 0 21 -60 41 -123 41 -50 0 -66 4 -71 16 -6 15 -1 136 9 230 4 39 2 42 -22 47 -15 3 -32 3 -39 0 -7 -2 -19 -60 -30 -145 -12 -93 -22 -142 -31 -145 -7 -3 -29 9 -48 25 -34 31 -92 49 -119 39 -38 -15 -89 -191 -84 -293 2 -58 0 -66 -27 -96 -33 -35 -54 -53 -96 -81 l-27 -18 -7 55 c-9 73 -1 109 24 101 32 -10 81 60 81 114 0 26 -62 73 -92 69 -37 -5 -86 -100 -100 -193 -4 -22 -39 -42 -109 -60 l-48 -13 -5 31 c-3 18 -10 109 -16 202 -7 94 -15 206 -19 249 -9 95 -6 99 95 140 198 82 244 110 244 153 0 13 -3 22 -7 22 -5 -1 -17 -3 -28 -6z m-129 -92 c-3 -5 -16 -11 -28 -14 -22 -6 -22 -5 -4 8 22 17 40 20 32 6z m-156 -65 c0 -2 -11 -11 -25 -20 -28 -19 -33 -15 -9 8 14 15 34 22 34 12z m-46 -266 c18 -261 28 -345 47 -372 20 -29 24 -48 10 -48 -16 0 -41 -67 -41 -109 0 -62 20 -144 41 -167 35 -38 16 -64 -34 -45 -37 14 -46 37 -63 168 -15 114 -15 349 1 558 13 167 28 173 39 15z m796 27 c0 -18 5 -38 10 -43 8 -8 8 -32 0 -79 -8 -49 -8 -95 1 -169 14 -123 38 -244 50 -252 19 -11 8 -25 -13 -18 -69 20 -89 95 -90 333 -1 116 3 184 10 198 7 12 12 31 12 42 0 12 5 21 10 21 6 0 10 -15 10 -33z m-206 -25 c3 -5 -4 -26 -16 -48 -16 -30 -21 -55 -20 -104 0 -36 1 -89 1 -118 0 -36 7 -65 21 -87 38 -62 21 -69 -26 -10 -45 55 -46 58 -47 128 -1 96 44 247 74 247 4 0 10 -4 13 -8z m38 -17 c0 -5 -5 -11 -11 -13 -6 -2 -11 4 -11 13 0 9 5 15 11 13 6 -2 11 -8 11 -13z m98 -154 l0 -119 -27 -7 c-16 -3 -44 -17 -64 -30 l-37 -24 -6 22 c-11 41 -6 57 28 94 41 46 74 106 82 150 13 69 24 29 24 -86z m-86 82 c-9 -42 -53 -137 -60 -130 -3 3 -3 40 1 81 7 76 8 76 36 76 27 0 29 -2 23 -27z m657 -106 c25 -85 49 -178 49 -192 0 -9 11 -28 25 -43 47 -50 17 -109 -31 -60 -44 46 -73 144 -79 262 -4 101 -3 108 11 87 9 -12 20 -36 25 -54z m-949 22 c-23 -9 -42 -38 -42 -64 0 -9 -9 -30 -21 -46 -16 -22 -20 -41 -17 -74 4 -52 -4 -58 -22 -15 -8 20 -9 34 -2 43 5 6 20 45 32 85 25 78 53 111 78 90 11 -10 10 -13 -6 -19z m4 -53 c-25 -38 -38 -31 -19 9 11 22 20 32 26 26 7 -7 4 -19 -7 -35z m749 4 c-3 -5 -2 -10 3 -10 5 0 10 -25 11 -57 1 -31 9 -74 16 -97 18 -51 18 -56 0 -56 -21 0 -85 59 -85 78 0 9 6 34 14 57 8 22 17 52 20 68 4 15 11 27 17 27 6 0 7 -4 4 -10z m-1006 -264 c18 -73 13 -216 -9 -216 -10 0 -34 115 -34 170 -1 54 11 103 23 96 5 -3 14 -26 20 -50z m497 3 c21 -56 17 -85 -17 -124 -48 -54 -56 -47 -48 38 7 76 26 130 43 124 5 -2 15 -19 22 -38z m71 -61 c8 -70 -40 -141 -84 -124 -11 5 -8 12 15 36 35 34 47 76 37 128 -6 35 -5 36 10 21 10 -10 19 -37 22 -61z" id="svg_14"/>
<path d="M2186 971 c-12 -18 -26 -173 -26 -279 l0 -104 -42 -71 -43 -72 -12 103 c-13 111 -22 132 -58 132 -13 0 -25 6 -28 13 -6 15 -71 37 -109 37 -50 0 -97 -92 -100 -192 -1 -57 22 -97 66 -113 36 -13 55 1 85 61 l24 48 15 -49 c18 -64 26 -73 74 -85 67 -19 77 -9 126 110 10 24 11 24 12 -10 1 -58 34 -119 74 -135 69 -29 112 -17 149 43 32 51 79 184 68 195 -5 5 -22 -16 -39 -45 -37 -67 -80 -118 -97 -118 -29 0 -50 117 -65 364 -6 88 -11 161 -13 162 -9 10 -56 14 -61 5z m43 -197 c1 -84 28 -268 45 -309 16 -37 49 -60 74 -51 10 4 7 -3 -8 -15 -18 -15 -32 -19 -55 -15 -40 8 -60 30 -83 92 -17 46 -18 67 -11 220 4 93 11 185 15 204 l8 35 7 -50 c4 -27 8 -77 8 -111z m-355 -131 c-28 -53 -31 -109 -8 -142 14 -19 14 -25 3 -32 -8 -5 -19 -9 -25 -9 -17 0 -44 46 -44 75 0 77 50 172 84 159 12 -5 11 -13 -10 -51z m82 11 c-8 -16 -26 -55 -41 -86 -31 -67 -51 -77 -40 -20 10 56 45 123 69 132 28 10 29 8 12 -26z m63 -36 c4 -13 11 -49 15 -82 3 -32 11 -67 17 -78 13 -24 7 -32 -18 -24 -11 3 -33 33 -51 66 -31 60 -31 61 -16 100 18 44 40 52 53 18z" id="svg_15"/>
<path d="M516 914 c-15 -38 0 -141 18 -124 2 3 14 30 25 60 20 51 20 56 4 68 -23 16 -40 15 -47 -4z" id="svg_16"/>
<path d="M2922 911 c-5 -74 -94 -187 -182 -231 -53 -27 -157 -37 -213 -22 -20 6 -35 7 -32 3 2 -5 32 -14 65 -21 108 -23 216 14 294 101 48 53 78 120 73 162 -3 23 -4 25 -5 8z" id="svg_17"/>
<path d="M1268 825 c-12 -26 -2 -78 16 -79 4 -1 18 16 30 37 21 37 21 38 2 52 -27 21 -35 19 -48 -10z" id="svg_18"/>
</g><polyline fill="none" stroke="#222222" stroke-width="2" stroke-linejoin="round" stroke-dashoffset="" fill-rule="nonzero" marker-start="" marker-mid="" marker-end="" id="svg_19" points="198.48275030538127,142.04138019401032 198.48275030538127,142.04138019401032 " style="color: rgb(0, 0, 0);"/><path fill="#b70948" fill-opacity="1" stroke="none" stroke-opacity="1" stroke-width="2" stroke-dasharray="none" stroke-linejoin="round" stroke-linecap="butt" stroke-dashoffset="" fill-rule="nonzero" opacity="1" marker-start="" marker-mid="" marker-end="" id="svg_20" d="M 194.01709717998497 142.33846260687775 C 194.01709717998497 142.33846260687775 197.77778100197588 132.5948727044468 197.7777777777778 132.47863247863248 C 197.77778100197588 132.5948727044468 201.70940499769364 133.10769322562737 201.70940499769364 133.10769322562737 C 201.70940499769364 133.10769322562737 207.35043073068 155.84273633129962 207.35043073068 155.84273633129962 C 207.35043073068 155.84273633129962 199.14530239179075 155.5008559838459 199.14529914529916 155.3846153846154 C 199.14530239179075 155.5008559838459 199.4871827392445 141.14188139078973 199.31624256551763 141.14188139078973" style="color: rgb(183, 9, 72);"/><path fill="#b70948" fill-opacity="1" stroke="none" stroke-opacity="1" stroke-width="2" stroke-dasharray="none" stroke-linejoin="round" stroke-linecap="butt" stroke-dashoffset="" fill-rule="nonzero" opacity="1" marker-start="" marker-mid="" marker-end="" id="svg_21" d="M 194.18803735371188 141.48376173824346 C 194.18803735371188 141.48376173824346 198.80342204433708 149.34700972967897 198.80341880341882 149.23076923076923 C 198.80342204433708 149.34700972967897 201.19658447651307 144.90256521278064 201.1965811965812 144.7863247863248 C 201.19658447651307 144.90256521278064 202.05128534514736 140.11624034842856 202.05128534514736 140.11624034842856 C 202.05128534514736 140.11624034842856 194.18803735371188 141.48376173824346 194.18803735371188 141.48376173824346 z" style="color: rgb(183, 9, 72);"/><path fill="#b70948" fill-opacity="1" stroke="none" stroke-opacity="1" stroke-width="2" stroke-dasharray="none" stroke-linejoin="round" stroke-linecap="butt" stroke-dashoffset="" fill-rule="nonzero" opacity="1" marker-start="" marker-mid="" marker-end="" id="svg_23" d="M 197.60684082824903 147.29572764495666 L 201.02564102564105 146.15384615384616 C 201.02564430278622 146.2700866025955 201.02564430278622 150.8854712932207 201.02564430278622 150.8854712932207 C 201.02564430278622 150.8854712932207 198.6324818706102 151.39829181440126 198.63247863247864 151.2820512820513 C 198.6324818706102 151.39829181440126 202.05128534514736 140.11624034842856 197.60684082824903 147.29572764495666 z" style="color: rgb(183, 9, 72);"/><path fill="#b70948" fill-opacity="1" stroke="none" stroke-opacity="1" stroke-width="2" stroke-dasharray="none" stroke-linejoin="round" stroke-linecap="butt" stroke-dashoffset="" fill-rule="nonzero" opacity="1" marker-start="" marker-mid="" marker-end="" id="svg_25" d="M 197.09402030706843 146.78290712377608 L 199.31623931623932 152.30769230769232 L 203.24786324786325 148.3760683760684 L 200.51282051282053 144.6153846153846 L 197.09402030706843 146.78290712377608 z" style="color: rgb(183, 9, 72);"/><path fill="#b70948" fill-opacity="1" stroke="none" stroke-opacity="1" stroke-width="2" stroke-dasharray="none" stroke-linejoin="round" stroke-linecap="butt" stroke-dashoffset="" fill-rule="nonzero" opacity="1" marker-start="" marker-mid="" marker-end="" id="svg_27" d="M 42.05128273680732 156.01367650502647 C 42.05128273680732 156.01367650502647 40.34188099953873 148.49230886104468 40.34188099953873 148.49230886104468 C 40.34188099953873 148.49230886104468 49.91453072824284 127.8085478400947 49.91453072824284 127.8085478400947" style="color: rgb(183, 9, 72);"/><path fill="#b70948" fill-opacity="1" stroke="none" stroke-opacity="1" stroke-width="2" stroke-dasharray="none" stroke-linejoin="round" stroke-linecap="butt" stroke-dashoffset="" fill-rule="nonzero" opacity="1" marker-start="" marker-mid="" marker-end="" id="svg_22" d="M 43.41880412662219 157.72307824229506 C 43.41880412662219 157.72307824229506 45.98290673252508 154.9880354626653 45.98290673252508 154.81709528893845 C 45.98290673252508 154.6461551152116 47.008547774886225 147.80854816613723 47.00854700854701 147.6923076923077 C 47.008547774886225 147.80854816613723 49.2307700333354 141.6547019119703 49.2307700333354 141.6547019119703 C 49.2307700333354 141.6547019119703 49.743590554515976 137.0393172213451 49.743590554515976 137.0393172213451 C 49.743590554515976 137.0393172213451 51.62393246551144 134.13333426798852 51.62393246551144 134.13333426798852" style="color: rgb(183, 9, 72);"/><path fill="#b70948" fill-opacity="1" stroke="none" stroke-opacity="1" stroke-width="2" stroke-dasharray="none" stroke-linejoin="round" stroke-linecap="butt" stroke-dashoffset="" fill-rule="nonzero" opacity="1" marker-start="" marker-mid="" marker-end="" id="svg_24" d="M 49.572650380789106 139.2615394797943 C 49.572650380789106 139.2615394797943 45.98290673252508 138.40683861115997 45.81196655879822 138.40683861115997 C 45.641026385071356 138.40683861115997 41.88034256308046 153.96239442030418 41.88034256308046 153.7914542465773 C 41.88034256308046 153.62051407285043 44.95726569016392 157.0393175473876 44.95726495726496 156.92307692307693 C 44.95726569016392 157.0393175473876 49.572650380789106 139.2615394797943 49.572650380789106 139.2615394797943 z" style="color: rgb(183, 9, 72);"/><path fill="#b70948" fill-opacity="1" stroke="none" stroke-opacity="1" stroke-width="2" stroke-dasharray="none" stroke-linejoin="round" stroke-linecap="butt" stroke-dashoffset="" fill-rule="nonzero" opacity="1" marker-start="" marker-mid="" marker-end="" id="svg_28" d="M 49.572650380789106 140.9709412170629 C 49.572650380789106 140.9709412170629 51.11111194433085 127.63760766636787 51.111111111111114 127.52136752136752 C 51.11111194433085 127.63760766636787 46.495727253705674 132.5948727044468 46.324787079978805 132.5948727044468 C 46.153846906251935 132.5948727044468 45.1282058638908 141.6547019119703 45.299146037617646 141.6547019119703 C 45.470086211344494 141.6547019119703 49.572650380789106 140.9709412170629 49.572650380789106 140.9709412170629 z" style="color: rgb(183, 9, 72);"/><path fill="#b70948" fill-opacity="1" stroke="none" stroke-opacity="1" stroke-width="2" stroke-dasharray="none" stroke-linejoin="round" stroke-linecap="butt" stroke-dashoffset="" fill-rule="nonzero" opacity="1" marker-start="" marker-mid="" marker-end="" id="svg_30" d="M 48.205128990974245 135.50085565780338 C 48.205128990974245 135.50085565780338 55.72649663495605 131.2273513146319 55.72649663495605 131.2273513146319 C 55.72649663495605 131.2273513146319 51.62393246551144 127.46666749264101 51.62393246551144 127.46666749264101 C 51.62393246551144 127.46666749264101 48.205128990974245 135.50085565780338 48.205128990974245 135.50085565780338 z" style="color: rgb(183, 9, 72);"/><path fill="#b70948" fill-opacity="1" stroke="none" stroke-opacity="1" stroke-width="2" stroke-dasharray="none" stroke-linejoin="round" stroke-linecap="butt" stroke-dashoffset="" fill-rule="nonzero" opacity="1" marker-start="" marker-mid="" marker-end="" id="svg_32" d="M 50.256411075696555 135.50085565780338 C 50.256411075696555 135.50085565780338 51.96581281296514 132.9367530519005 51.965811965811966 132.82051282051282 C 51.96581281296514 132.9367530519005 47.86324864352053 133.27863339935422 47.86324864352053 133.27863339935422 C 47.86324864352053 133.27863339935422 50.256411075696555 135.50085565780338 50.256411075696555 135.50085565780338 z" style="color: rgb(183, 9, 72);"/><path fill="#b70948" fill-opacity="1" stroke="none" stroke-opacity="1" stroke-width="2" stroke-dasharray="none" stroke-linejoin="round" stroke-linecap="butt" stroke-dashoffset="" fill-rule="nonzero" opacity="1" marker-start="" marker-mid="" marker-end="" id="svg_34" d="M 85.29914668970265 118.40683828511749 C 85.29914668970265 118.40683828511749 76.7521380033597 111.91111168349684 76.75213675213676 111.7948717948718 C 76.7521380033597 111.91111168349684 68.20512931701674 122.33846228083524 68.20512931701674 122.33846228083524 C 68.20512931701674 122.33846228083524 85.29914668970265 118.40683828511749 85.29914668970265 118.40683828511749 z" style="color: rgb(183, 9, 72);"/><path fill="#b70948" fill-opacity="1" stroke="none" stroke-opacity="1" stroke-width="2" stroke-dasharray="none" stroke-linejoin="round" stroke-linecap="butt" stroke-dashoffset="" fill-rule="nonzero" opacity="1" marker-start="" marker-mid="" marker-end="" id="svg_36" d="M 70.42735157546592 121.14188106474721 C 70.42735157546592 121.14188106474721 66.83760792720187 147.29572764495666 66.83760792720187 147.29572764495666 C 66.83760792720187 147.29572764495666 74.70085591863739 146.61196695004924 74.7008547008547 146.4957264957265 C 74.70085591863739 146.61196695004924 75.72649696099855 119.43247932747863 75.72649696099855 119.43247932747863 C 75.72649696099855 119.43247932747863 70.42735157546592 121.14188106474721 70.42735157546592 121.14188106474721 z" style="color: rgb(183, 9, 72);"/><path fill="#b70948" fill-opacity="1" stroke="none" stroke-opacity="1" stroke-width="2" stroke-dasharray="none" stroke-linejoin="round" stroke-linecap="butt" stroke-dashoffset="" fill-rule="nonzero" opacity="1" marker-start="" marker-mid="" marker-end="" id="svg_38" d="M 66.83760792720187 143.70598399669262 C 66.83760792720187 143.70598399669262 74.35897557118368 144.73162503905377 74.35897435897436 144.6153846153846 C 74.35897557118368 144.73162503905377 80.00000130417001 156.18461667875334 80 156.06837606837607 C 80.00000130417001 156.18461667875334 73.67521487627624 157.72307824229506 73.67521487627624 157.72307824229506 C 73.67521487627624 157.72307824229506 66.83760792720187 143.70598399669262 66.83760792720187 143.70598399669262 z" style="color: rgb(183, 9, 72);"/><path fill="#b70948" fill-opacity="1" stroke="none" stroke-opacity="1" stroke-width="2" stroke-dasharray="none" stroke-linejoin="round" stroke-linecap="butt" stroke-dashoffset="" fill-rule="nonzero" opacity="1" marker-start="" marker-mid="" marker-end="" id="svg_40" d="M 80.00000130417001 160.1162406744711 C 80.00000130417001 160.1162406744711 79.6581209567163 182.50940343268962 79.6581209567163 182.50940343268962 C 79.6581209567163 182.50940343268962 85.64102703715636 178.23589908951814 85.64102703715636 178.23589908951814 C 85.64102703715636 178.23589908951814 85.98290738461009 169.1760698819946 85.98290738461009 169.1760698819946 C 85.98290738461009 169.1760698819946 84.78632616852207 162.85128345410084 84.7863247863248 162.73504273504275 C 84.78632616852207 162.85128345410084 80.00000130417001 160.1162406744711 80.00000130417001 160.1162406744711 z" style="color: rgb(183, 9, 72);"/><path fill="#b70948" fill-opacity="1" stroke="none" stroke-opacity="1" stroke-width="2" stroke-dasharray="none" stroke-linejoin="round" stroke-linecap="butt" stroke-dashoffset="" fill-rule="nonzero" opacity="1" marker-start="" marker-mid="" marker-end="" id="svg_42" d="M 72.9914541813688 181.14188204287473 C 72.9914541813688 181.14188204287473 80.68376199907746 172.93675370398552 80.6837606837607 172.82051282051282 C 80.68376199907746 172.93675370398552 81.19658252025803 181.82564273778215 81.1965811965812 181.70940170940173 C 81.19658252025803 181.82564273778215 75.89743713472541 184.04786499623134 75.8974358974359 183.93162393162393 C 75.89743713472541 184.04786499623134 72.9914541813688 181.14188204287473 72.9914541813688 181.14188204287473 z" style="color: rgb(183, 9, 72);"/><path fill="#b70948" fill-opacity="1" stroke="none" stroke-opacity="1" stroke-width="2" stroke-dasharray="none" stroke-linejoin="round" stroke-linecap="butt" stroke-dashoffset="" fill-rule="nonzero" opacity="1" marker-start="" marker-mid="" marker-end="" id="svg_44" d="M 13.84615158070713 100.28717667587284 C 13.84615158070713 100.28717667587284 11.794869495984818 150.20170740411567 11.794869495984818 150.20170740411567 C 11.794869495984818 150.20170740411567 22.735040614503795 146.95384410330536 22.735040614503795 146.95384410330536 C 22.735040614503795 146.95384410330536 18.46153627133232 98.4068347648774 18.46153627133232 98.4068347648774 C 18.46153627133232 98.4068347648774 13.84615158070713 100.28717667587284 13.84615158070713 100.28717667587284 z" style="color: rgb(183, 9, 72);"/><path fill="#b70948" fill-opacity="1" stroke="none" stroke-opacity="1" stroke-width="2" stroke-dasharray="none" stroke-linejoin="round" stroke-linecap="butt" stroke-dashoffset="" fill-rule="nonzero" opacity="1" marker-start="" marker-mid="" marker-end="" id="svg_46" d="M 14.87179262306828 187.1247849291172 C 14.87179262306828 187.1247849291172 11.794869495984818 145.4153825397636 11.623931623931625 145.2991452991453 C 11.794869495984818 145.4153825397636 22.222220093323216 145.5863227134905 22.222220093323216 145.5863227134905 C 22.222220093323216 145.5863227134905 25.811963741587256 156.18461348455574 25.811963741587256 156.18461348455574 C 25.811963741587256 156.18461348455574 19.658117487420334 167.12478460307472 19.658117487420334 167.12478460307472 C 19.658117487420334 167.12478460307472 22.05127991959636 173.62051120469536 22.05127991959636 173.62051120469536 C 22.05127991959636 173.62051120469536 23.58974148313809 180.79999850122343 23.58974148313809 180.79999850122343 C 23.58974148313809 180.79999850122343 26.837604783948414 186.61196440793663 26.837604783948414 186.61196440793663 C 26.837604783948414 186.61196440793663 27.17948513140213 190.03076788247384 27.17948513140213 190.03076788247384 C 27.17948513140213 190.03076788247384 21.196579050962065 190.88546875110814 21.196579050962065 191.05640892483498 C 21.196579050962065 191.22734909856183 14.87179262306828 187.1247849291172 14.87179262306828 187.1247849291172 z" style="color: rgb(183, 9, 72);"/><path fill="#b70948" fill-opacity="1" stroke="none" stroke-opacity="1" stroke-width="2" stroke-dasharray="none" stroke-linejoin="round" stroke-linecap="butt" stroke-dashoffset="" fill-rule="nonzero" opacity="1" marker-start="" marker-mid="" marker-end="" id="svg_48" d="M 19.99999783487405 173.27863085724164 C 19.99999783487405 172.76581033606107 22.05127991959636 161.65469904381524 22.05127991959636 161.48375887008837 C 22.05127991959636 161.3128186963615 14.529912275614562 166.09914356071354 14.529912275614562 166.09914356071354 C 14.529912275614562 166.09914356071354 19.99999783487405 173.7914513784222 19.99999783487405 173.27863085724164 z" style="color: rgb(183, 9, 72);"/><path fill="#b70948" fill-opacity="1" stroke="none" stroke-opacity="1" stroke-width="2" stroke-dasharray="none" stroke-linejoin="round" stroke-linecap="butt" stroke-dashoffset="" fill-rule="nonzero" opacity="1" marker-start="" marker-mid="" marker-end="" id="svg_26" d="M 126.83760641416094 133.62051030807845 C 126.83760641416094 133.62051030807845 121.1965806811746 151.56922854939867 121.1965806811746 151.56922854939867 C 121.1965806811746 151.56922854939867 129.40170902006383 159.4324765408342 129.40170902006383 159.4324765408342 C 129.40170902006383 159.4324765408342 133.3333330157816 159.94529706201476 133.16239316239316 159.82905982905984 C 133.3333330157816 159.94529706201476 134.5299142318696 157.38119445611187 134.5299142318696 157.38119445611187 C 134.5299142318696 157.38119445611187 130.42735006242498 136.69743343516194 130.42735006242498 136.69743343516194 C 130.42735006242498 136.69743343516194 126.83760641416094 133.62051030807845 126.83760641416094 133.62051030807845 z" style="color: rgb(183, 9, 72);"/><path fill="#b70948" fill-opacity="1" stroke="none" stroke-opacity="1" stroke-width="2" stroke-dasharray="none" stroke-linejoin="round" stroke-linecap="butt" stroke-dashoffset="" fill-rule="nonzero" opacity="1" marker-start="" marker-mid="" marker-end="" id="svg_31" d="M 142.22222204957825 127.46666405391154 C 142.22222204957825 127.46666405391154 143.58974343939312 143.87692073169 143.58974343939312 143.87692073169 C 143.58974343939312 143.87692073169 146.83760674020346 158.40683549847301 146.83760674020346 158.40683549847301 C 146.83760674020346 158.40683549847301 154.87179490536582 167.63760487972343 154.87179490536582 167.63760487972343 C 154.87179490536582 167.63760487972343 159.1452992485373 165.0735022738205 159.1452992485373 165.0735022738205 C 159.1452992485373 165.0735022738205 159.65811976971787 160.79999793064906 159.65811965811966 160.68376068376068 C 159.65811976971787 160.79999793064906 153.84615386300467 153.79145080784784 153.84615386300467 153.79145080784784 C 153.84615386300467 153.79145080784784 153.84615386300467 147.63760455368092 153.84615384615387 147.52136752136752 C 153.84615386300467 147.63760455368092 151.1111110833749 139.43247621479168 150.94017090964806 139.43247621479168 C 150.7692307359212 139.43247621479168 149.23076917237947 131.74016839708304 149.23076917237947 131.74016839708304 C 149.23076917237947 131.74016839708304 146.83760674020346 127.6376042276384 146.83760674020346 127.6376042276384 C 146.83760674020346 127.6376042276384 142.22222204957825 127.46666405391154 142.22222204957825 127.46666405391154 z" style="color: rgb(183, 9, 72);"/><path fill="#b70948" fill-opacity="1" stroke="none" stroke-opacity="1" stroke-width="2" stroke-dasharray="none" stroke-linejoin="round" stroke-linecap="butt" stroke-dashoffset="" fill-rule="nonzero" opacity="1" marker-start="" marker-mid="" marker-end="" id="svg_35" d="M 177.94871835849182 141.48375829951397 C 177.94871835849182 141.48375829951397 180.6837611381215 151.05640802821807 180.6837611381215 151.05640802821807 C 180.6837611381215 151.05640802821807 184.95726548129304 153.27863028666724 185.12820565501988 153.27863028666724 C 185.29914582874673 153.27863028666724 187.69230826092274 152.42392941803294 187.69230826092274 152.2529892443061 C 187.69230826092274 152.08204907057925 188.71794930328394 149.17606611722266 188.71794930328394 149.17606611722266 C 188.71794930328394 149.17606611722266 185.8119663499273 143.5350403842363 185.8119663499273 143.5350403842363 C 185.8119663499273 143.5350403842363 189.2307698244645 132.76580943944418 189.2307698244645 132.76580943944418 C 189.2307698244645 132.76580943944418 191.2820519091868 128.32136492254583 191.2820519091868 127.97948457509212 C 191.2820519091868 127.6376042276384 184.78632530756616 126.95384353273097 184.7863247863248 126.83760683760684 C 184.78632530756616 126.95384353273097 177.94871835849182 141.48375829951397 177.94871835849182 141.48375829951397 z" style="color: rgb(183, 9, 72);"/><path fill="#b70948" fill-opacity="1" stroke="none" stroke-opacity="1" stroke-width="2" stroke-dasharray="none" stroke-linejoin="round" stroke-linecap="butt" stroke-dashoffset="" fill-rule="nonzero" opacity="1" marker-start="" marker-mid="" marker-end="" id="svg_39" d="M 94.87179392723831 107.12478414457743 C 94.87179392723831 107.12478414457743 92.30769132133541 120.45811769527242 92.30769132133541 120.45811769527242 C 92.30769132133541 120.45811769527242 93.33333236369657 153.10769087710253 93.33333236369657 153.10769087710253 C 93.33333236369657 153.10769087710253 97.4358965331412 166.9538449489781 97.4358965331412 166.9538449489781 C 97.4358965331412 166.9538449489781 101.19658035513207 168.66324668624668 101.02564102564104 168.54700854700855 C 101.19658035513207 168.66324668624668 104.61538382966927 170.03076807606152 104.61538382966927 170.03076807606152" style="color: rgb(183, 9, 72);"/><path fill="#b70948" fill-opacity="1" stroke="none" stroke-opacity="1" stroke-width="2" stroke-dasharray="none" stroke-linejoin="round" stroke-linecap="butt" stroke-dashoffset="" fill-rule="nonzero" opacity="1" marker-start="" marker-mid="" marker-end="" id="svg_43" d="M 105.81196504575729 169.68888772860782 C 104.61538382966927 170.03076807606152 103.07692226612757 155.15897296182482 103.07692226612757 155.15897296182482 C 103.07692226612757 155.15897296182482 99.48717861786349 164.04786199562147 99.31623931623932 163.93162393162393 C 99.48717861786349 164.04786199562147 104.61538382966927 170.03076807606152 105.81196504575729 169.68888772860782 z" style="color: rgb(183, 9, 72);"/><path fill="#b70948" fill-opacity="1" stroke="none" stroke-opacity="1" stroke-width="2" stroke-dasharray="none" stroke-linejoin="round" stroke-linecap="butt" stroke-dashoffset="" fill-rule="nonzero" opacity="1" marker-start="" marker-mid="" marker-end="" id="svg_47" d="M 106.66666591439157 169.68888772860782 C 106.83760608811843 169.51794755488095 104.78632400339612 165.07350303798262 104.61538461538463 164.95726495726495 C 104.78632400339612 165.07350303798262 103.76068296103497 168.4923065125198 103.58974358974359 168.3760683760684 C 103.76068296103497 168.4923065125198 106.49572574066472 169.8598279023347 106.66666591439157 169.68888772860782 z" style="color: rgb(183, 9, 72);"/><path fill="#b70948" fill-opacity="1" stroke="none" stroke-opacity="1" stroke-width="2" stroke-dasharray="none" stroke-linejoin="round" stroke-linecap="butt" stroke-dashoffset="" fill-rule="nonzero" opacity="1" marker-start="" marker-mid="" marker-end="" id="svg_50" d="M 92.99145201624285 130.20170759770338 C 93.33333236369657 130.20170759770338 94.87179392723831 106.44102344966998 94.7008547008547 106.32478632478633 C 94.87179392723831 106.44102344966998 98.6324777492292 106.61196362339685 98.6324777492292 106.61196362339685 C 98.6324777492292 106.61196362339685 100.68375983395151 117.89401508936955 100.68375983395151 117.89401508936955 C 100.68375983395151 117.89401508936955 99.65811879159037 128.49230586043478 99.65811879159037 128.49230586043478 C 99.65811879159037 128.49230586043478 99.48717861786349 135.1589726357823 99.31623931623932 135.04273504273505 C 99.48717861786349 135.1589726357823 92.64957166878912 130.20170759770338 92.99145201624285 130.20170759770338 z" style="color: rgb(183, 9, 72);"/><path fill="#b70948" fill-opacity="1" stroke="none" stroke-opacity="1" stroke-width="2" stroke-dasharray="none" stroke-linejoin="round" stroke-linecap="butt" stroke-dashoffset="" fill-rule="nonzero" opacity="1" marker-start="" marker-mid="" marker-end="" id="svg_52" d="M 220.00000109529913 104.04786025333186 C 220.00000109529913 104.04786025333186 217.60683866312309 134.3042710029859 217.60683866312309 134.3042710029859 C 217.60683866312309 134.3042710029859 217.0940181419425 142.68033951560201 217.0940181419425 142.3384591681483 C 217.0940181419425 141.99657882069457 220.51282161647973 155.32991237138958 220.51282161647973 155.32991237138958 C 220.51282161647973 155.32991237138958 226.66666787064662 161.31281845182963 226.66666787064662 161.31281845182963 C 226.66666787064662 161.31281845182963 229.91453117145693 161.31281845182963 229.91452991452994 161.1965811965812 C 229.91453117145693 161.31281845182963 234.52991586208213 159.7743568882879 234.52991586208213 159.7743568882879 C 234.52991586208213 159.7743568882879 224.61538578592427 156.35555341375073 224.61538578592427 156.35555341375073 C 224.61538578592427 156.35555341375073 220.00000109529913 104.04786025333186 220.00000109529913 104.04786025333186 z" style="color: rgb(183, 9, 72);"/><path fill="#b70948" fill-opacity="1" stroke="none" stroke-opacity="1" stroke-width="2" stroke-dasharray="none" stroke-linejoin="round" stroke-linecap="butt" stroke-dashoffset="" fill-rule="nonzero" opacity="1" marker-start="" marker-mid="" marker-end="" id="svg_54" d="M 223.0769242223826 103.53503973215129 C 223.0769242223826 103.53503973215129 226.83760804437352 143.87692073169 226.83760804437352 143.87692073169 C 226.83760804437352 143.87692073169 229.40171065027639 152.42392941803297 229.40171065027639 152.08204907057925 C 229.40171065027639 151.74016872312552 233.3333346459941 156.18461324002385 233.3333346459941 156.18461324002385 C 233.3333346459941 156.18461324002385 237.43589881543875 156.69743376120442 237.43589881543875 156.69743376120442 C 237.43589881543875 156.69743376120442 235.7264970781701 159.09059619338046 235.3846167307164 159.4324765408342 C 235.0427363832627 159.7743568882879 229.40171065027639 161.65469879928338 229.40171065027639 161.4837586255565 C 229.40171065027639 161.31281845182963 223.76068491729 158.9196560196536 223.76068376068378 158.80341880341882 C 223.76068491729 158.9196560196536 218.97436005293795 147.46666437995407 218.97436005293795 147.46666437995407 C 218.97436005293795 147.46666437995407 217.60683866312309 117.89401432520744 217.60683866312309 117.89401432520744 C 217.60683866312309 117.89401432520744 219.48718057411853 101.99657816860956 219.48718057411853 101.99657816860956 C 219.48718057411853 101.99657816860956 223.0769242223826 103.53503973215129 223.0769242223826 103.53503973215129 z" style="color: rgb(183, 9, 72);"/><path fill="#b70948" fill-opacity="1" stroke="none" stroke-opacity="1" stroke-width="2" stroke-dasharray="none" stroke-linejoin="round" stroke-linecap="butt" stroke-dashoffset="" fill-rule="nonzero" opacity="1" marker-start="" marker-mid="" marker-end="" id="svg_56" d="M 18.9743567925129 87.12478305437281 C 18.9743567925129 87.12478305437281 40.68375885582399 77.89401367312243 40.68375885582399 77.89401367312243 C 40.68375885582399 77.89401367312243 40.51281868209713 81.82563766884019 40.51281868209713 81.82563766884019 C 40.51281868209713 81.82563766884019 37.60683572874053 83.8769197535625 37.60683572874053 83.8769197535625 C 37.60683572874053 83.8769197535625 25.299143220406677 89.17606513909513 25.299143220406677 89.17606513909513 C 25.299143220406677 89.17606513909513 18.119655923878604 94.6461506983546 17.94871794871795 94.52991452991454 C 18.119655923878604 94.6461506983546 15.72649349170257 95.50085156698889 15.555553317975715 95.15897121953519 C 15.38461314424886 94.8170908720815 18.9743567925129 87.12478305437281 18.9743567925129 87.12478305437281 z" style="color: rgb(183, 9, 72);"/></g></svg>